<svg width="38" height="38" viewBox="0 0 38 38" fill="none" xmlns="http://www.w3.org/2000/svg">
<g filter="url(#filter0_d_727_1098)">
<path fill-rule="evenodd" clip-rule="evenodd" d="M19 30C27.2843 30 34 23.2843 34 15C34 6.71572 27.2843 0 19 0C10.7157 0 4 6.71572 4 15C4 23.2843 10.7157 30 19 30ZM20.875 9.375C20.875 8.33947 20.0356 7.5 19 7.5C17.9645 7.5 17.125 8.33947 17.125 9.375V13.125H13.375C12.3395 13.125 11.5 13.9645 11.5 15C11.5 16.0356 12.3395 16.875 13.375 16.875H17.125V20.625C17.125 21.6606 17.9645 22.5 19 22.5C20.0356 22.5 20.875 21.6606 20.875 20.625V16.875H24.625C25.6606 16.875 26.5 16.0356 26.5 15C26.5 13.9645 25.6606 13.125 24.625 13.125H20.875V9.375Z" fill="#004182"/>
</g>
<defs>
<filter id="filter0_d_727_1098" x="0" y="0" width="38" height="38" filterUnits="userSpaceOnUse" color-interpolation-filters="sRGB">
<feFlood flood-opacity="0" result="BackgroundImageFix"/>
<feColorMatrix in="SourceAlpha" type="matrix" values="0 0 0 0 0 0 0 0 0 0 0 0 0 0 0 0 0 0 127 0" result="hardAlpha"/>
<feOffset dy="4"/>
<feGaussianBlur stdDeviation="2"/>
<feComposite in2="hardAlpha" operator="out"/>
<feColorMatrix type="matrix" values="0 0 0 0 0 0 0 0 0 0 0 0 0 0 0 0 0 0 0.25 0"/>
<feBlend mode="normal" in2="BackgroundImageFix" result="effect1_dropShadow_727_1098"/>
<feBlend mode="normal" in="SourceGraphic" in2="effect1_dropShadow_727_1098" result="shape"/>
</filter>
</defs>
</svg>
